HIERARCHY
ROOT Hips
{
	OFFSET -0.179506 -22.333345 2.821913
	CHANNELS 6 Xposition Yposition Zposition Zrotation Yrotation Xrotation 
	JOINT LeftUpLeg
	{
		OFFSET 6.951974 -9.140623 -0.681533
		CHANNELS 3 Zrotation Yrotation Xrotation
		JOINT LeftLeg
		{
			OFFSET 3.427654 -37.519855 -0.449580
			CHANNELS 3 Zrotation Yrotation Xrotation
			JOINT LeftFoot
			{
				OFFSET -1.359570 -39.796059 -4.369333
				CHANNELS 3 Zrotation Yrotation Xrotation
				JOINT LeftToe
				{
					OFFSET 2.635814 -5.579078 11.928840
					CHANNELS 3 Zrotation Yrotation Xrotation
					End Site
					{
						OFFSET 0.000000 0.000000 0.000000
					}
				}
			}
		}
	}
	JOINT RightUpLeg
	{
		OFFSET -6.767048 -9.052170 -0.431982
		CHANNELS 3 Zrotation Yrotation Xrotation
		JOINT RightLeg
		{
			OFFSET -3.829005 -38.256897 -0.885003
			CHANNELS 3 Zrotation Yrotation Xrotation
			JOINT RightFoot
			{
				OFFSET 1.577377 -39.841461 -4.231180
				CHANNELS 3 Zrotation Yrotation Xrotation
				JOINT RightToe
				{
					OFFSET -2.537174 -4.814398 12.334795
					CHANNELS 3 Zrotation Yrotation Xrotation
					End Site
					{
						OFFSET 0.000000 0.000000 0.000000
					}
				}
			}
		}
	}
	JOINT Spine
	{
		OFFSET -0.253288 10.896323 -2.669631
		CHANNELS 3 Zrotation Yrotation Xrotation
		JOINT Spine1
		{
			OFFSET 0.548704 13.518043 0.109247
			CHANNELS 3 Zrotation Yrotation Xrotation
			JOINT Spine2
			{
				OFFSET 0.145701 5.292222 2.542457
				CHANNELS 3 Zrotation Yrotation Xrotation
				JOINT Neck
				{
					OFFSET -0.277840 21.387037 -4.285703
					CHANNELS 3 Zrotation Yrotation Xrotation
					JOINT Head
					{
						OFFSET 0.515184 6.496960 5.134897
						CHANNELS 3 Zrotation Yrotation Xrotation
						End Site
						{
							OFFSET 0.000000 0.000000 0.000000
						}
					}
				}
				JOINT LeftShoulder
				{
					OFFSET 7.884473 12.174932 -3.408961
					CHANNELS 3 Zrotation Yrotation Xrotation
					JOINT LeftArm
					{
						OFFSET 9.097692 3.046888 -0.886815
						CHANNELS 3 Zrotation Yrotation Xrotation
						JOINT LeftForeArm
						{
							OFFSET 25.961220 -1.277207 -2.745643
							CHANNELS 3 Zrotation Yrotation Xrotation
							JOINT LeftHand
							{
								OFFSET 24.923361 0.898606 -0.117091
								CHANNELS 3 Zrotation Yrotation Xrotation
								End Site
								{
									OFFSET 0.000000 0.000000 0.000000
								}
							}
						}
					}
				}
				JOINT RightShoulder
				{
					OFFSET -8.175920 11.883285 -3.861528
					CHANNELS 3 Zrotation Yrotation Xrotation
					JOINT RightArm
					{
						OFFSET -9.601238 3.255117 -0.914307
						CHANNELS 3 Zrotation Yrotation Xrotation
						JOINT RightForeArm
						{
							OFFSET -25.374195 -1.332924 -2.140099
							CHANNELS 3 Zrotation Yrotation Xrotation
							JOINT RightHand
							{
								OFFSET -25.529810 0.777228 -0.555919
								CHANNELS 3 Zrotation Yrotation Xrotation
								End Site
								{
									OFFSET 0.000000 0.000000 0.000000
								}
							}
						}
					}
				}
			}
		}
	}
}
MOTION
Frames: 7
Frame Time: 0.033333
-38.802124 27.757311 96.118332 178.843505 -0.532459 87.678417 -2.534071 -1.357193 8.944516 3.227062 -9.464545 -8.485496 0.773711 6.456351 -1.728072 nan nan nan -1.056705 -3.079696 6.337429 0.207921 -2.599363 -5.104886 5.474315 -7.265377 -0.412835 nan nan nan -0.171631 2.330290 3.258792 0.650419 -4.061700 4.933718 1.088203 -1.042608 -1.942759 -3.288155 -1.166947 0.037140 5.387773 -3.175491 -6.511452 -23.379904 -6.689152 4.566087 -58.469988 -8.181448 11.100057 4.170747 -17.114550 -2.369352 -14.716879 -13.162757 -5.273599 22.807060 12.425906 4.446208 58.330060 6.844793 15.318560 -8.108496 19.048789 -0.122168 12.912048 9.166301 -3.024013 
-38.793114 27.761267 96.120377 178.842927 -0.515003 87.679143 -2.500098 -1.349216 8.957924 3.213284 -9.460414 -8.504794 0.761046 6.444482 -1.717192 nan nan nan -1.029439 -3.074001 6.347848 0.208962 -2.592560 -5.107806 5.472200 -7.264464 -0.390639 nan nan nan -0.123112 2.323505 3.249920 0.645391 -4.059259 4.935444 1.066167 -1.034819 -1.924774 -3.299028 -1.167848 0.023514 5.373626 -3.194687 -6.524174 -23.418572 -6.695078 4.570288 -58.403523 -8.169918 11.087610 4.154516 -17.147421 -2.371590 -14.675238 -13.138527 -5.263369 22.841265 12.426960 4.445208 58.301874 6.827497 15.312872 -8.093177 19.078104 -0.106675 12.901106 9.159902 -3.004604 
-38.791775 27.841976 96.185379 179.040526 -0.285211 88.080660 -2.370689 -1.588587 8.589877 3.562108 -9.886310 -8.580123 0.728615 6.625146 -1.628935 nan nan nan -0.686240 -3.076568 6.082985 0.090726 -2.421383 -5.351100 5.821523 -7.659146 -0.227102 nan nan nan 0.314515 2.326449 4.299921 0.763056 -4.036463 2.972147 1.092061 -0.863287 -1.865999 -3.880350 -2.020650 0.032402 5.332094 -2.943779 -7.070430 -21.876576 -5.556361 3.103124 -60.311727 -7.882774 11.617199 2.951600 -16.156020 -1.929592 -14.300712 -12.630560 -6.151849 21.306201 9.892070 2.175647 59.675811 6.110286 15.255062 -6.451878 19.121979 2.154108 13.461654 8.661280 -1.920942 
-38.802608 27.831820 96.228821 179.142431 -0.278133 88.024298 -2.479446 -1.838136 8.677963 3.748600 -9.954401 -8.621903 0.835734 6.734522 -1.539931 nan nan nan -0.679787 -2.984053 6.252777 0.092643 -2.303838 -5.550036 5.980153 -7.973107 -0.217952 nan nan nan 0.403564 2.318830 4.809107 0.771865 -3.992856 2.170244 1.142735 -0.954468 -1.373760 -3.515288 -2.861584 -0.926255 5.251890 -3.032899 -6.864669 -21.819224 -5.282208 2.802352 -60.578748 -7.818400 11.664987 2.946461 -16.209437 -1.731234 -14.430657 -12.850874 -6.920303 20.907494 9.122887 1.368707 60.044477 5.901946 15.486080 -6.230471 19.368916 3.131941 13.817437 8.283101 -1.819282 
-38.781029 27.822760 96.254791 179.216512 -0.238358 88.107413 -2.405393 -1.834872 8.546098 3.738352 -9.972037 -8.588457 0.823524 6.683361 -1.538709 nan nan nan -0.612890 -2.966563 6.157411 0.065567 -2.327892 -5.547896 5.945055 -7.992186 -0.146819 nan nan nan 0.432148 2.267962 4.724846 0.797048 -4.027965 2.128058 1.130209 -0.976272 -1.334639 -3.503365 -2.867123 -0.699214 5.210425 -2.990626 -7.150613 -21.703378 -5.211402 2.749231 -60.727051 -7.736281 11.770592 2.912341 -16.283667 -1.708463 -14.536615 -12.810425 -6.989328 20.726858 8.950724 1.219846 60.285375 5.799721 15.547154 -6.263755 19.539151 3.257470 13.854671 8.213805 -1.921313 
-38.758087 27.826284 96.249870 179.474399 -0.228000 88.140834 -2.483215 -2.068728 8.533253 4.298475 -10.220899 -8.662439 0.841487 6.277520 -1.320938 nan nan nan -0.598626 -3.029756 6.206134 0.053491 -2.594644 -5.733235 6.033232 -7.903671 0.141645 nan nan nan 0.376897 2.270827 5.012542 0.874580 -4.056992 1.634882 1.216469 -1.066637 -1.158520 -3.653381 -3.245041 -0.470603 5.264586 -2.765953 -7.519261 -21.545790 -5.410895 2.766754 -61.089482 -7.858375 11.564383 1.071768 -15.144529 -3.703298 -10.785339 -14.744760 -10.703102 20.345647 8.503398 0.682242 60.630040 5.686146 15.763094 -5.914898 19.327988 3.360325 12.508801 8.548592 -2.215881 
-38.739128 27.819752 96.242729 179.526945 -0.163976 88.214768 -2.401228 -2.064820 8.425247 4.301030 -10.236073 -8.686695 0.791121 6.199045 -1.201269 nan nan nan -0.494705 -3.061285 6.099085 0.017353 -2.659565 -5.738216 5.966829 -7.926786 0.256237 nan nan nan 0.417583 2.254364 4.991785 0.919254 -4.043705 1.537046 1.240938 -1.066983 -1.071449 -3.657539 -3.294573 -0.406510 5.223254 -2.785667 -7.704474 -21.476759 -5.425683 2.693721 -61.215796 -7.861357 11.734216 1.014740 -15.128664 -3.660184 -10.574195 -14.822846 -10.926443 20.270774 8.431298 0.561625 60.726800 5.542435 15.873449 -6.065984 19.449652 3.425303 12.445472 8.474799 -2.368106 
